<svg width="422" height="348" viewBox="0 0 422 348" fill="none" xmlns="http://www.w3.org/2000/svg">
<path d="M179.213 167.044C178.973 167.044 178.733 167.044 178.372 167.164L128.276 170.168L127.314 149.745L174.288 144.699L193.029 103.973L211.89 104.093C213.692 108.778 208.286 109.619 187.383 160.917C186.061 164.281 182.817 166.564 179.213 167.044Z" fill="#DCA58E"/>
<path d="M189.905 106.254L180.174 121.031L206.003 135.087L212.49 116.706C214.773 110.339 212.13 103.371 206.484 100.608C200.597 97.7245 193.389 100.127 189.905 106.254Z" fill="#CED2D3"/>
<path d="M243.243 38.8576C253.726 38.8576 262.225 30.3592 262.225 19.876C262.225 9.39285 253.726 0.894531 243.243 0.894531C232.76 0.894531 224.262 9.39285 224.262 19.876C224.262 30.3592 232.76 38.8576 243.243 38.8576Z" fill="#FFC107"/>
<path d="M224.262 19.877C224.262 19.877 241.681 20.9582 239.759 38.2578L224.262 19.877Z" fill="#5869FF"/>
<path d="M172.003 337.276C174.766 337.276 177.169 335.234 177.649 332.711H276.281C276.762 335.354 279.164 337.276 281.927 337.276C285.171 337.276 287.694 334.633 287.694 331.509C287.694 325.743 283.009 321.058 277.242 321.058H176.448C170.681 321.058 165.996 325.743 165.996 331.509C166.236 334.753 168.759 337.276 172.003 337.276Z" fill="#B8E0FB"/>
<path d="M157.587 224.229L173.806 215.579C189.904 215.579 200.116 207.049 202.518 191.672C205.522 172.81 210.447 119.59 210.447 118.989C210.808 114.544 214.772 111.781 219.337 112.622H311.121C315.566 113.463 318.93 117.788 318.57 122.113C318.33 124.636 312.923 185.064 309.8 204.526C306.196 226.992 290.098 240.447 266.671 240.447H236.156H159.389C154.944 240.447 150.86 236.843 150.379 232.398C149.899 227.833 153.142 224.229 157.587 224.229Z" fill="#B8E0FB"/>
<path d="M281.205 150.824H224.14C223.299 150.824 222.578 150.103 222.578 149.262C222.578 148.421 223.299 147.7 224.14 147.7H281.205C282.046 147.7 282.766 148.421 282.766 149.262C282.766 150.103 282.046 150.824 281.205 150.824Z" fill="#9ACCE5"/>
<path d="M279.287 169.926H222.222C221.381 169.926 220.66 169.205 220.66 168.364C220.66 167.524 221.381 166.803 222.222 166.803H279.287C280.128 166.803 280.848 167.524 280.848 168.364C280.728 169.205 280.128 169.926 279.287 169.926Z" fill="#9ACCE5"/>
<path d="M277.123 188.906H220.058C219.217 188.906 218.496 188.185 218.496 187.344C218.496 186.503 219.217 185.782 220.058 185.782H277.123C277.964 185.782 278.684 186.503 278.684 187.344C278.684 188.185 277.964 188.906 277.123 188.906Z" fill="#9ACCE5"/>
<path d="M236.155 240.447H266.55C289.976 240.447 306.074 226.992 309.678 204.527C312.802 185.065 318.208 124.756 318.448 122.113C318.809 117.668 315.565 113.463 311 112.622C306.555 111.781 302.59 114.665 302.11 118.99C302.11 119.59 296.463 181.46 293.46 200.322C291.057 215.699 280.846 224.229 264.747 224.229H234.353C229.908 224.229 226.664 227.833 227.145 232.278C227.625 236.843 231.71 240.447 236.155 240.447Z" fill="#9ACCE5"/>
<path d="M217.172 254.383H236.755C238.917 254.383 240.599 252.581 240.599 250.539V240.447H213.328V250.539C213.328 252.701 215.01 254.383 217.172 254.383Z" fill="#9ACCE5"/>
<path d="M217.807 319.878H236.188V254.404H217.807V319.878Z" fill="#B8E0FB"/>
<path d="M214.649 326.824H239.277V313.729C239.277 311.567 237.595 309.885 235.433 309.885H218.374C216.211 309.885 214.529 311.567 214.529 313.729V326.824H214.649Z" fill="#9ACCE5"/>
<path d="M202.279 337.276C205.042 337.276 207.445 335.234 207.926 332.711H245.889C246.369 335.354 248.772 337.276 251.535 337.276C254.779 337.276 257.302 334.633 257.302 331.509C257.302 325.743 252.616 321.058 246.85 321.058H206.844C201.078 321.058 196.393 325.743 196.393 331.509C196.513 334.753 199.156 337.276 202.279 337.276Z" fill="#9ACCE5"/>
<path d="M241.805 339.318C241.805 343.643 245.289 347.126 249.614 347.126C253.938 347.126 257.422 343.643 257.422 339.318C257.422 334.993 253.938 331.509 249.614 331.509C245.409 331.509 241.805 334.993 241.805 339.318Z" fill="#83B6CB"/>
<path d="M245.648 339.318C245.648 343.643 249.132 347.126 253.457 347.126C257.782 347.126 261.266 343.643 261.266 339.318C261.266 334.993 257.782 331.509 253.457 331.509C249.253 331.509 245.648 334.993 245.648 339.318Z" fill="#9ACCE5"/>
<path d="M192.549 339.318C192.549 343.643 196.033 347.126 200.358 347.126C204.683 347.126 208.167 343.643 208.167 339.318C208.167 334.993 204.683 331.509 200.358 331.509C196.033 331.509 192.549 334.993 192.549 339.318Z" fill="#83B6CB"/>
<path d="M196.393 339.318C196.393 343.643 199.877 347.126 204.201 347.126C208.526 347.126 212.01 343.643 212.01 339.318C212.01 334.993 208.526 331.509 204.201 331.509C199.877 331.509 196.393 334.993 196.393 339.318Z" fill="#9ACCE5"/>
<path d="M272.195 339.318C272.195 343.643 275.679 347.126 280.004 347.126C284.329 347.126 287.813 343.643 287.813 339.318C287.813 334.993 284.329 331.509 280.004 331.509C275.679 331.509 272.195 334.993 272.195 339.318Z" fill="#9ACCE5"/>
<path d="M276.043 339.318C276.043 343.643 279.527 347.126 283.852 347.126C288.177 347.126 291.661 343.643 291.661 339.318C291.661 334.993 288.177 331.509 283.852 331.509C279.527 331.509 276.043 334.993 276.043 339.318Z" fill="#B8E0FB"/>
<path d="M162.152 339.318C162.152 343.643 165.636 347.126 169.961 347.126C174.286 347.126 177.77 343.643 177.77 339.318C177.77 334.993 174.286 331.509 169.961 331.509C165.756 331.509 162.152 334.993 162.152 339.318Z" fill="#9ACCE5"/>
<path d="M165.996 339.318C165.996 343.643 169.48 347.126 173.805 347.126C178.13 347.126 181.614 343.643 181.614 339.318C181.614 334.993 178.13 331.509 173.805 331.509C169.6 331.509 165.996 334.993 165.996 339.318Z" fill="#B8E0FB"/>
<path opacity="0.15" d="M213.328 246.935L240.599 241.769V240.447H213.328V246.935Z" fill="#0F1B3C"/>
<path d="M147.859 329.346H169.483L172.006 275.646C163.476 276.727 155.067 278.529 146.777 280.331C147.618 306.881 147.859 329.346 147.859 329.346Z" fill="#E6B59C"/>
<path d="M170.443 326.463L170.834 347.006H118.184V344.483C118.184 341.24 120.346 338.356 123.47 337.636L146.295 326.703L170.443 326.463Z" fill="#A8ABAC"/>
<path d="M233.154 94.6006H235.676C246.489 95.3214 250.573 104.211 252.135 113.102L263.908 186.385C212.49 199.479 188.223 186.865 188.223 186.865L190.385 114.543C189.905 106.134 193.509 96.6429 202.519 95.2013L233.154 94.6006Z" fill="white"/>
<path opacity="0.15" d="M186.541 189.989L187.262 220.263H196.753L209.247 190.95C209.127 190.95 190.506 188.307 186.541 189.989Z" fill="#0F1B3C"/>
<path d="M141.008 310.366H174.766L176.808 220.264L197.712 222.907L220.057 187.827C220.057 187.827 169.6 176.775 148.336 193.113C146.654 194.435 145.213 199 145.213 201.162L141.008 310.366Z" fill="#D64E35"/>
<path d="M226.425 99.165L209.485 98.6844L208.885 62.4033L225.704 65.0463L226.425 99.165Z" fill="#E6B59C"/>
<path d="M206.245 95.0811L230.032 94.6006C230.032 94.6006 230.032 103.611 214.295 103.731C203.122 103.851 206.245 95.0811 206.245 95.0811Z" fill="#E6B59C"/>
<path d="M158.19 167.405C158.19 172.811 153.504 177.256 147.858 177.256C142.212 177.256 137.646 172.811 137.646 167.285C137.646 161.879 142.332 157.434 147.978 157.434C153.625 157.554 158.19 161.999 158.19 167.405Z" fill="#DCC0AC"/>
<path d="M164.675 172.451L153.983 172.331C151.22 172.331 148.938 170.049 148.938 167.406C148.938 164.763 151.22 162.48 154.103 162.6L164.795 162.72C167.559 162.72 169.841 165.003 169.841 167.646C169.841 170.289 167.559 172.451 164.675 172.451Z" fill="#DCC0AC"/>
<path d="M222.584 152.748L161.555 152.388L162.756 171.009H232.675C236.64 170.769 240.244 168.486 241.565 165.002L248.053 111.181C248.533 105.415 243.968 100.489 238.202 100.489C233.156 100.489 228.831 104.334 228.35 109.499L222.584 152.748Z" fill="#E6B59C"/>
<path d="M148.217 109.98L168.52 164.402H102.685L84.5449 114.786C83.704 112.503 85.3859 109.98 87.9087 109.98H148.217Z" fill="#B8E0FB"/>
<path d="M148.219 109.979H151.342C153.024 109.979 154.586 111.061 155.187 112.622L174.288 164.401H168.522L148.219 109.979Z" fill="#9ACCE5"/>
<path d="M107.491 169.688H170.322L168.4 164.402H102.686V164.883C102.686 167.526 104.848 169.688 107.491 169.688Z" fill="#B8E0FB"/>
<path d="M170.321 169.688H209.004C210.446 169.688 211.647 168.487 211.647 167.045C211.647 165.604 210.446 164.402 209.004 164.402H168.398L170.321 169.688Z" fill="#9ACCE5"/>
<path d="M131.64 140.614C132.842 144.338 131.4 148.302 128.276 149.264C125.153 150.345 121.669 148.062 120.347 144.338C119.146 140.614 120.588 136.649 123.711 135.688C126.835 134.607 130.319 136.769 131.64 140.614Z" fill="white"/>
<path d="M388.421 178.216L403.024 347.047H391.204L368.238 176.895L388.421 178.216Z" fill="#B8E0FB"/>
<path opacity="0.15" d="M368.715 179.898L369.676 186.626L389.138 185.905L388.657 179.898H368.715Z" fill="#0F1B3C"/>
<path d="M421.252 169.688H0V179.899H421.252V169.688Z" fill="#5869FF"/>
<path d="M34.6002 179.898L10.1289 347.016H22.3516L53.822 179.898H34.6002Z" fill="#B8E0FB"/>
<path opacity="0.15" d="M34.5998 179.898L33.3984 187.107L52.5001 186.266L53.8216 179.898H34.5998Z" fill="#0F1B3C"/>
<path d="M191.225 105.894L184.377 122.112C182.935 126.076 183.416 130.521 185.578 134.246L193.507 146.019L204.079 122.352L191.225 105.894Z" fill="white"/>
<path d="M349.767 147.343C349.767 147.343 346.163 139.174 353.732 133.768C361.421 128.362 362.141 120.553 357.576 118.51C349.407 114.786 331.387 103.734 330.666 90.9992C329.825 76.4627 337.033 61.3256 364.905 61.686C392.776 62.0464 374.756 86.9146 382.324 93.7623C390.013 100.61 409.595 99.1685 409.475 112.984C409.235 126.8 367.067 134.609 367.067 134.609C367.067 134.609 352.17 139.294 353.852 147.463H349.767V147.343Z" fill="white"/>
<path d="M338.717 141.216H363.705C363.705 141.216 365.147 170.169 351.211 170.169C338.717 170.169 338.717 141.216 338.717 141.216Z" fill="#F16A51"/>
<path d="M363.825 160.077C360.221 160.077 357.338 157.194 357.338 153.59C357.338 149.986 360.221 147.103 363.825 147.103C367.309 147.103 370.313 149.986 370.313 153.59C370.192 157.194 367.309 160.077 363.825 160.077ZM363.825 149.625C361.543 149.625 359.741 151.427 359.741 153.71C359.741 155.993 361.543 157.795 363.825 157.795C366.108 157.795 367.91 155.993 367.91 153.71C367.91 151.427 366.108 149.625 363.825 149.625Z" fill="#F16A51"/>
<path d="M405.028 85.1132C409.075 85.1132 412.356 82.4239 412.356 79.1064C412.356 75.7889 409.075 73.0996 405.028 73.0996C400.98 73.0996 397.699 75.7889 397.699 79.1064C397.699 82.4239 400.98 85.1132 405.028 85.1132Z" fill="white"/>
<path d="M225.943 71.0547C225.943 71.0547 225.943 93.0396 209.484 93.0396V77.1816L225.943 71.0547Z" fill="#DCA58E"/>
<path d="M193.866 331.271H215.49L216.932 277.57C208.402 278.652 199.993 280.454 191.703 282.256C192.544 308.926 193.866 331.271 193.866 331.271Z" fill="#E6B59C"/>
<path d="M216.693 326.587V347.13H164.434V344.607C164.434 341.364 166.596 338.48 169.72 337.76L192.545 326.827L216.693 326.587Z" fill="#AFB3B4"/>
<path d="M220.9 310.365L222.342 223.146C222.342 223.146 267.152 225.429 263.909 186.384C263.909 186.384 198.314 182.18 193.509 186.384C180.414 197.917 186.661 310.365 186.661 310.365" fill="#F16A51"/>
<path d="M210.57 16.9912C210.57 16.9912 236.279 16.8711 239.763 38.2553C243.007 58.3181 227.029 65.5262 227.029 65.5262L210.57 16.9912Z" fill="#FFC107"/>
<path d="M204.446 86.7915H203.725C191.111 85.8304 181.62 74.7778 182.701 62.1635L184.864 34.5322L231.356 38.1363L229.194 65.7676C228.113 78.3819 217.06 87.7525 204.446 86.7915Z" fill="#E6B59C"/>
<path d="M232.797 55.6751L227.27 62.8832C227.27 62.8832 221.144 66.247 222.105 54.714C222.825 44.9829 215.617 47.5058 215.617 47.5058C215.617 47.5058 185.463 57.4771 177.174 45.2232C166.962 30.0861 192.431 15.1892 210.572 17.1113L234.599 34.2908L232.797 55.6751Z" fill="#FFC107"/>
<path d="M224.509 62.6436C224.148 66.8484 227.272 70.5726 231.477 70.9331C235.681 71.2935 239.406 68.1699 239.766 63.9652C240.126 59.7604 237.003 56.0362 232.798 55.6758C228.593 55.3154 224.869 58.4389 224.509 62.6436Z" fill="#E6B59C"/>
<path d="M230.396 67.4492C230.276 68.17 230.877 68.8908 231.598 68.8908C232.318 69.011 233.039 68.4103 233.039 67.6895C233.159 66.9686 232.559 66.2478 231.838 66.2478C231.117 66.1277 230.396 66.7284 230.396 67.4492Z" fill="white"/>
<path d="M205.166 58.075C205.166 59.1562 204.084 60.1173 203.003 59.9971C201.802 59.9971 200.961 58.9159 200.961 57.8347C200.961 56.7535 202.042 55.7924 203.123 55.9125C204.325 56.0327 205.286 56.9938 205.166 58.075Z" fill="black"/>
<path d="M190.148 57.8367C190.148 58.9179 189.067 59.879 187.986 59.7589C186.784 59.7589 185.943 58.6776 185.943 57.5964C185.943 56.5152 187.025 55.5541 188.106 55.6742C189.307 55.7944 190.268 56.7555 190.148 57.8367Z" fill="black"/>
<path d="M193.873 60.3584L189.548 64.443C189.188 64.9236 189.428 65.6444 190.149 65.6444L194.594 65.7645L193.873 60.3584Z" fill="#DCA58E"/>
<path d="M187.984 69.25L206.125 69.8507C206.125 69.8507 205.164 77.0589 195.313 76.338C188.705 75.9776 187.984 69.25 187.984 69.25Z" fill="white"/>
<path d="M224.625 110.34L221.381 127.76L250.694 130.763L249.493 111.301C249.132 104.453 243.966 99.1674 237.719 98.807C231.112 98.3265 225.465 103.372 224.625 110.34Z" fill="#CED2D3"/>
</svg>
